<?xml version="1.0" encoding="utf-8"?>
<!-- Generator: Adobe Illustrator 24.0.1, SVG Export Plug-In . SVG Version: 6.00 Build 0)  -->
<svg version="1.1" id="Layer_1" xmlns="http://www.w3.org/2000/svg" xmlns:xlink="http://www.w3.org/1999/xlink" x="0px" y="0px"
	 viewBox="0 0 1194 400" style="enable-background:new 0 0 1194 400;" xml:space="preserve">
<style type="text/css">
	.st0{fill:#7036F5;}
</style>
<g>
	<path class="st0" d="M206.8,40.2l-132,45.4c-3,1-4.9,4-4.7,7.2l6.7,134.8c1,20.8,9.7,40.5,24.4,55.3l75.1,75.8
		c3,2.4,7.4,1.9,9.8-1.1c1-1.2,1.5-2.8,1.5-4.3V194.6c0-3.9-3.1-7-7-7h-54.9c-3.9,0-7-3.1-7-7v-32.8c0-3.9,3.1-7,7-7h167.5
		c3.9,0,7,3.1,7,7v32.8c0,3.9-3.1,7-7,7h-54.6c-3.9,0-7,3.1-7,7v157.7c0,3.9,3.2,7,7.1,6.9c1.6,0,3.1-0.6,4.3-1.5l74.1-74.9
		c14.6-14.8,23.3-34.5,24.3-55.3L348,92.7c0.3-3.2-1.7-6.2-4.7-7.2l-132-45.4C209.9,39.6,208.3,39.6,206.8,40.2z"/>
	<path d="M418.2,165.7h-41.4v-21.1h109.1v21.1h-41.3v95.1h-26.4V165.7z"/>
	<path d="M500.4,137.9h25.2V159h-25.2V137.9z M500.4,175.9h25.2v84.9h-25.2V175.9z"/>
	<path d="M541.9,175.9h15.5v-25.4h25.3v25.4h20v18.5h-20v37.4c0,7.6,1.7,11.1,10,11.1c2.5,0.1,5-0.1,7.4-0.6v17.4
		c-4.5,1.3-10.4,1.9-16.4,1.9c-20.4,0-26.3-8.9-26.3-25.5v-41.7H542L541.9,175.9L541.9,175.9z"/>
	<path d="M701,237.5c0,10.6,0.5,21.5,0.7,23.4h-23.8c-0.7-2.2-0.9-7.6-1-10c-4.5,7.6-14.3,12.3-30.6,12.3
		c-23.3,0-32.6-14.2-32.6-27.6c0-22.2,19.5-28.4,44.4-28.4h18.2v-3c0-7.2-3.1-13.3-16.4-13.3c-12.3,0-15,4.8-16.2,10.1h-25.2
		c0.8-10.6,8.2-27.4,41.1-27.4c36,0,41.4,17,41.4,31.2L701,237.5L701,237.5z M676.4,223.3c-2-0.1-7.9-0.1-17.8-0.1
		c-14.5,0-20.5,3.7-20.5,11.1c0,6,4.7,10.8,15.1,10.8c15.9,0,23.1-7.7,23.1-20.1L676.4,223.3z"/>
	<path d="M724.8,197.4c0-7.2,0-15.3-0.2-21.4h24.6c0.3,2.5,0.6,7.9,0.8,11.7c3.9-6.2,11.8-14,28.6-14c20.8,0,33.2,12.9,33.2,34.9
		v52.2h-25.5v-48.2c0-10.4-4-19.3-16.6-19.3c-13.3,0-19.6,9.4-19.6,25.4v42.1h-25.3L724.8,197.4L724.8,197.4z"/>
	<path d="M835.4,144.6h51.8c38.9,0,60.4,25.3,60.4,56.1c0,37.2-27.2,60.1-61,60.1h-51.2V144.6z M861.8,240.3H883
		c24,0,36.7-13.8,36.7-38.8c0-22.3-12.2-36.1-36.2-36.4h-21.7V240.3z"/>
	<path d="M988.8,224.5c0.7,11.2,8.7,19.8,22.1,19.8c10.6,0,15.8-3.4,19.1-9.1h25.2c-5,14.7-17.7,28-44.7,28
		c-34.1,0-46.8-22.9-46.8-44.6c0-24.2,16.2-44.9,46.6-44.9c32.9,0,45.9,22.9,45.9,44.8c0,2,0,3.5-0.1,6.1L988.8,224.5z
		 M1030.6,208.8c-0.6-7-4.3-17.4-20.3-17.4c-14.6,0-20.2,8.2-21.1,17.4H1030.6z"/>
	<path d="M1080.9,260.8v-66.4h-14.6v-18.5h14.6V168c0-20.5,10.3-31.3,31.7-31.3c3.6-0.1,7.2,0.2,10.8,0.9v18.7
		c-1.9-0.3-3.7-0.4-5.6-0.3c-9.1,0-11.6,3.4-11.6,12.2v7.8h17.8v18.5h-17.8v66.4h-25.3V260.8z"/>
</g>
</svg>
