<svg id="Layer_1" data-name="Layer 1" xmlns="http://www.w3.org/2000/svg" viewBox="0 0 1080 1080"><title>FINAL LOGO VARIATION AGAIN</title><path d="M487,656.75H637.91q-65.58,69.13-131.36,138.09c-18.88,19.79-45.35,20.84-66,3.7-20-16.62-23.19-41.18-7.13-64.46Q460.14,695.35,487,656.75Z"/><path d="M742.27,539H568.83q1.26-1.92,2.59-3.92L431.88,371c-5.91-6.95-12-13.77-17.73-20.86-18.18-22.45-17.79-47.68.87-66.07,19.46-19.16,45-19.66,67.24-.92Q584.8,369.43,687.2,455.88c12.49,10.52,25.17,20.82,37.43,31.6C742,502.77,748.09,521.13,742.27,539Z"/><path d="M240.17,620.5a4.48,4.48,0,0,1-2.84-1,5,5,0,0,1-1.74-2.33L224.37,584.3a4.23,4.23,0,0,1-.24-1.35,3.5,3.5,0,0,1,3.55-3.55,3.81,3.81,0,0,1,2,.55,2.78,2.78,0,0,1,1.23,1.58L240.17,612l9.17-29.72a4,4,0,0,1,3.87-2.84,4.07,4.07,0,0,1,2.45.79,3.49,3.49,0,0,1,1.43,2L266.25,612l9.25-30.43a2.69,2.69,0,0,1,1.27-1.58,3.84,3.84,0,0,1,2-.55A3.5,3.5,0,0,1,282.3,583a4.23,4.23,0,0,1-.24,1.35l-11.22,32.88a5.18,5.18,0,0,1-1.74,2.33,4.58,4.58,0,0,1-5.69,0,5.63,5.63,0,0,1-1.82-2.41l-8.38-26.16-8.37,26.16a5.63,5.63,0,0,1-1.82,2.41A4.51,4.51,0,0,1,240.17,620.5Z"/><path d="M300.56,620.89a14.52,14.52,0,0,1-6.37-1.42,11.72,11.72,0,0,1-4.74-4.07,11.92,11.92,0,0,1,2.69-15.57q4.47-3.6,13.71-3.6h9.57v-.63q0-5.29-2.61-7.55t-8-2.25a25.54,25.54,0,0,0-5.81.59c-1.66.4-3.23.83-4.71,1.31a4.62,4.62,0,0,1-1,.15,2.78,2.78,0,0,1-2.06-.87,2.88,2.88,0,0,1-.87-2.13,3,3,0,0,1,2.06-3,39.21,39.21,0,0,1,6.12-2,31.73,31.73,0,0,1,7.55-.83,17.48,17.48,0,0,1,9.41,2.29,14.32,14.32,0,0,1,5.37,5.85,16.71,16.71,0,0,1,1.74,7.43v22.37a3.38,3.38,0,0,1-1.07,2.53,3.6,3.6,0,0,1-2.57,1,3.5,3.5,0,0,1-3.55-3.56v-2.06a22.83,22.83,0,0,1-5.69,4.12A19.51,19.51,0,0,1,300.56,620.89Zm2.68-6.32a14,14,0,0,0,7-1.82,19.18,19.18,0,0,0,5.22-4.11V602H306.8a22.05,22.05,0,0,0-8.73,1.42,4.92,4.92,0,0,0-3.2,4.83,6.27,6.27,0,0,0,1.77,4.42Q298.42,614.58,303.24,614.57Z"/><path d="M343,638.68a3.24,3.24,0,0,1-2.41-1,3.41,3.41,0,0,1-1-2.45,3.16,3.16,0,0,1,.24-1.27l5.14-13.2-14.86-36.2c-.05-.21-.12-.44-.2-.71a2.66,2.66,0,0,1-.12-.79,3.57,3.57,0,0,1,1-2.57,3.37,3.37,0,0,1,2.53-1.06,3.42,3.42,0,0,1,2,.63,3.62,3.62,0,0,1,1.31,1.58l12.17,30.19,12.41-30a4.25,4.25,0,0,1,1.3-1.74,3.26,3.26,0,0,1,2-.63,3.38,3.38,0,0,1,2.53,1.06,3.61,3.61,0,0,1,1,2.57,3.76,3.76,0,0,1-.24,1.35l-21.58,51.85a5.4,5.4,0,0,1-1.26,1.73A3,3,0,0,1,343,638.68Z"/><path d="M417.69,620.89a17.11,17.11,0,0,1-7.43-1.58,21.18,21.18,0,0,1-6.09-4.43v2.06a3.45,3.45,0,0,1-1,2.53,3.57,3.57,0,0,1-2.61,1,3.45,3.45,0,0,1-2.53-1,3.42,3.42,0,0,1-1-2.53v-51.3a3.5,3.5,0,0,1,1-2.6,3.42,3.42,0,0,1,2.53-1,3.51,3.51,0,0,1,3.63,3.63V585a21.37,21.37,0,0,1,6.09-4.43,17.11,17.11,0,0,1,7.43-1.58,18.46,18.46,0,0,1,9.17,2.45,19.51,19.51,0,0,1,7.15,7.12,24.45,24.45,0,0,1,0,22.76,19.41,19.41,0,0,1-7.15,7.11A18.35,18.35,0,0,1,417.69,620.89Zm-1-6.72a12.68,12.68,0,0,0,9.29-3.63c2.45-2.42,3.68-6,3.68-10.59s-1.23-8.24-3.68-10.63a12.74,12.74,0,0,0-9.29-3.6,14.65,14.65,0,0,0-7,1.7,20.08,20.08,0,0,0-5.46,4.23v16.6a20.24,20.24,0,0,0,5.46,4.22A14.53,14.53,0,0,0,416.66,614.17Z"/><path d="M464.88,620.89q-9.64,0-15.06-5.49T444.41,600a26.28,26.28,0,0,1,2-10.16,17.66,17.66,0,0,1,6.17-7.78q4.18-3,10.74-3a17.56,17.56,0,0,1,16.64,10.12,22.23,22.23,0,0,1,2.18,9.8,3.46,3.46,0,0,1-3.64,3.56H451.68a13.37,13.37,0,0,0,4,8.49q3.39,3.21,9.8,3.2a22.89,22.89,0,0,0,6-.67,25.45,25.45,0,0,0,4.67-1.78,3.12,3.12,0,0,1,1.42-.31,3.16,3.16,0,0,1,2.21.87,2.83,2.83,0,0,1,.95,2.21,2.7,2.7,0,0,1-.59,1.7,4.67,4.67,0,0,1-1.46,1.22,28.81,28.81,0,0,1-5.65,2.49A27.3,27.3,0,0,1,464.88,620.89Zm-13.2-24.26H475A12.17,12.17,0,0,0,472.9,590a11.33,11.33,0,0,0-4.47-3.72,11.76,11.76,0,0,0-10.27,0,11,11,0,0,0-4.43,3.72A12.33,12.33,0,0,0,451.68,596.63Z"/><path d="M500.21,638.68a3.26,3.26,0,0,1-2.42-1,3.45,3.45,0,0,1-1-2.45,3.34,3.34,0,0,1,.23-1.27l5.14-13.2-14.86-36.2c-.05-.21-.12-.44-.19-.71A2.66,2.66,0,0,1,487,583a3.6,3.6,0,0,1,1-2.57,3.38,3.38,0,0,1,2.53-1.06,3.48,3.48,0,0,1,2,.63,3.6,3.6,0,0,1,1.3,1.58l12.17,30.19,12.41-30a4.18,4.18,0,0,1,1.31-1.74,3.21,3.21,0,0,1,2-.63,3.37,3.37,0,0,1,2.53,1.06,3.57,3.57,0,0,1,1,2.57,3.76,3.76,0,0,1-.24,1.35l-21.57,51.85a5.28,5.28,0,0,1-1.27,1.73A2.93,2.93,0,0,1,500.21,638.68Z"/><path d="M550.87,620.89a20.88,20.88,0,0,1-10.67-2.65,18,18,0,0,1-7.07-7.35,25.3,25.3,0,0,1,0-21.89,18.13,18.13,0,0,1,7.07-7.35,22.73,22.73,0,0,1,21.3,0,18.46,18.46,0,0,1,7.07,7.35,24.94,24.94,0,0,1,0,21.89,18.33,18.33,0,0,1-7.07,7.35A20.68,20.68,0,0,1,550.87,620.89Zm0-6.56a14,14,0,0,0,6-1.42,12.09,12.09,0,0,0,5-4.62,15.66,15.66,0,0,0,2-8.42,15.45,15.45,0,0,0-2-8.38,11.81,11.81,0,0,0-5-4.54,14.19,14.19,0,0,0-6-1.39,14.43,14.43,0,0,0-6,1.39,11.48,11.48,0,0,0-5,4.54,15.72,15.72,0,0,0-2,8.38,16,16,0,0,0,2,8.42,11.74,11.74,0,0,0,5,4.62A14.18,14.18,0,0,0,550.87,614.33Z"/><path d="M584.7,620.5a3.52,3.52,0,0,1-3.56-3.56V583a3.53,3.53,0,0,1,1-2.61,3.43,3.43,0,0,1,2.53-1,3.56,3.56,0,0,1,2.56,1,3.45,3.45,0,0,1,1.07,2.61v3.24a31.85,31.85,0,0,1,6-5A15.64,15.64,0,0,1,603,579a13.12,13.12,0,0,1,12.49,7.71,17.94,17.94,0,0,1,1.66,7.78v22.45a3.34,3.34,0,0,1-1.07,2.53,3.6,3.6,0,0,1-2.57,1,3.52,3.52,0,0,1-3.55-3.56V595.28a11.13,11.13,0,0,0-2-7.07q-2-2.57-6.68-2.57a12.39,12.39,0,0,0-7.43,2.29,28.1,28.1,0,0,0-5.53,5.3v23.71a3.34,3.34,0,0,1-1.07,2.53A3.57,3.57,0,0,1,584.7,620.5Z"/><path d="M646,620.89a18.43,18.43,0,0,1-9.13-2.45,19.36,19.36,0,0,1-7.19-7.11,24.45,24.45,0,0,1,0-22.76,19.46,19.46,0,0,1,7.19-7.12A18.53,18.53,0,0,1,646,579a17.31,17.31,0,0,1,7.51,1.58,20.38,20.38,0,0,1,6,4.43V565.64a3.44,3.44,0,0,1,1.06-2.6,3.55,3.55,0,0,1,2.57-1,3.42,3.42,0,0,1,2.53,1,3.53,3.53,0,0,1,1,2.6v51.3a3.52,3.52,0,0,1-3.56,3.56,3.6,3.6,0,0,1-2.57-1,3.37,3.37,0,0,1-1.06-2.53v-2.06a20.2,20.2,0,0,1-6,4.43A17.31,17.31,0,0,1,646,620.89Zm1-6.72a14.53,14.53,0,0,0,7-1.7,20.24,20.24,0,0,0,5.46-4.22v-16.6a20.08,20.08,0,0,0-5.46-4.23,14.65,14.65,0,0,0-7-1.7,12.74,12.74,0,0,0-9.29,3.6Q634,592.91,634,600c0,4.63,1.22,8.17,3.67,10.59A12.68,12.68,0,0,0,647,614.17Z"/><path d="M713.61,620.89a24.76,24.76,0,0,1-3.36-.27,11.67,11.67,0,0,1-3.8-1.27,8.05,8.05,0,0,1-3.12-3.12,11.33,11.33,0,0,1-1.26-5.77V586h-5.61a1.33,1.33,0,0,1-1.51-1.5,1.67,1.67,0,0,1,.71-1.35l10.75-10.51c.11-.1.28-.25.52-.43a1.26,1.26,0,0,1,.83-.28,1.4,1.4,0,0,1,1.06.47,1.61,1.61,0,0,1,.44,1.11v6.32h8.93a3,3,0,0,1,3.08,3.09,3,3,0,0,1-.87,2.17,3,3,0,0,1-2.21.91h-8.93v23.87a5.12,5.12,0,0,0,.87,3.32,3.41,3.41,0,0,0,2.09,1.22,14.1,14.1,0,0,0,2.18.2,8.08,8.08,0,0,0,2.8-.36,5.43,5.43,0,0,1,1.94-.35,2.83,2.83,0,0,1,2,.79,2.63,2.63,0,0,1,.87,2.05,3,3,0,0,1-1.81,2.77,18.83,18.83,0,0,1-3,1A15,15,0,0,1,713.61,620.89Z"/><path d="M747.35,620.89q-9.65,0-15.05-5.49T726.88,600a26.28,26.28,0,0,1,2-10.16A17.71,17.71,0,0,1,735,582a20.46,20.46,0,0,1,21-.2,18.18,18.18,0,0,1,6.36,7.31,22.23,22.23,0,0,1,2.17,9.8,3.44,3.44,0,0,1-3.63,3.56H734.16a13.37,13.37,0,0,0,4,8.49q3.39,3.21,9.8,3.2a22.89,22.89,0,0,0,6-.67,25.45,25.45,0,0,0,4.67-1.78,3.12,3.12,0,0,1,1.42-.31,3.16,3.16,0,0,1,2.21.87,2.87,2.87,0,0,1,1,2.21,2.7,2.7,0,0,1-.59,1.7,4.67,4.67,0,0,1-1.46,1.22,28.81,28.81,0,0,1-5.65,2.49A27.32,27.32,0,0,1,747.35,620.89Zm-13.19-24.26h23.31a12.25,12.25,0,0,0-2.09-6.64,11.33,11.33,0,0,0-4.47-3.72,11.76,11.76,0,0,0-10.27,0,11,11,0,0,0-4.43,3.72A12.33,12.33,0,0,0,734.16,596.63Z"/><path d="M792.72,620.89a22.38,22.38,0,0,1-10.43-2.49,19.48,19.48,0,0,1-7.75-7.19,23.27,23.27,0,0,1,0-22.57,19.67,19.67,0,0,1,7.75-7.15A22.38,22.38,0,0,1,792.72,579a21.43,21.43,0,0,1,7.79,1.23,25.64,25.64,0,0,1,5.1,2.57,3.15,3.15,0,0,1,1.58,2.76,3.29,3.29,0,0,1-.87,2.14,2.72,2.72,0,0,1-2.14,1,3.56,3.56,0,0,1-1.74-.47,30.14,30.14,0,0,0-4-1.82,15.28,15.28,0,0,0-5.06-.71q-6.87,0-10.71,3.95a15.7,15.7,0,0,0,0,20.55q3.84,4,10.71,3.95a14.44,14.44,0,0,0,5.06-.75,42.13,42.13,0,0,0,4-1.78,3.67,3.67,0,0,1,1.74-.47,2.7,2.7,0,0,1,2.14,1,3.25,3.25,0,0,1,.87,2.13,3.17,3.17,0,0,1-1.58,2.77,31.79,31.79,0,0,1-5.1,2.53A21,21,0,0,1,792.72,620.89Z"/><path d="M819.75,620.5a3.5,3.5,0,0,1-3.55-3.56v-51.3a3.53,3.53,0,0,1,1-2.6,3.43,3.43,0,0,1,2.53-1,3.55,3.55,0,0,1,2.57,1,3.45,3.45,0,0,1,1.07,2.6v20.63a31.47,31.47,0,0,1,6-5,15.69,15.69,0,0,1,8.74-2.25,13.14,13.14,0,0,1,12.49,7.71,18.09,18.09,0,0,1,1.66,7.78v22.45a3.38,3.38,0,0,1-1.07,2.53,3.6,3.6,0,0,1-2.57,1,3.52,3.52,0,0,1-3.56-3.56V595.28a11.19,11.19,0,0,0-2-7.07c-1.35-1.71-3.57-2.57-6.68-2.57a12.37,12.37,0,0,0-7.43,2.29,27.83,27.83,0,0,0-5.53,5.3v23.71a3.38,3.38,0,0,1-1.07,2.53A3.6,3.6,0,0,1,819.75,620.5Z"/></svg>